<?xml version="1.0" encoding="UTF-8"?>
<svg version="1.1" xmlns="http://www.w3.org/2000/svg" width="24" height="24">
<path d="M0 0 C2.125 0.3125 2.125 0.3125 5 1 C6.8253125 1.3403125 6.8253125 1.3403125 8.6875 1.6875 C12 3 12 3 13.19921875 5.58984375 C14.09658472 9.41130958 14.22231771 12.9814304 14.125 16.875 C14.08375 19.22625 14.0425 21.5775 14 24 C6.08 24 -1.84 24 -10 24 C-10.04125 21.64875 -10.0825 19.2975 -10.125 16.875 C-10.14320801 16.14651855 -10.16141602 15.41803711 -10.18017578 14.66748047 C-10.21611748 10.39273764 -9.82208594 6.88438257 -8 3 C-4.4375 1.6875 -4.4375 1.6875 -1 1 C-0.67 0.67 -0.34 0.34 0 0 Z " fill="#D9E8F8" transform="translate(10,0)"/>
<path d="M0 0 C2.125 0.3125 2.125 0.3125 5 1 C6.8253125 1.3403125 6.8253125 1.3403125 8.6875 1.6875 C12 3 12 3 13.19921875 5.58984375 C14.09658472 9.41130958 14.22231771 12.9814304 14.125 16.875 C14.08375 19.22625 14.0425 21.5775 14 24 C6.08 24 -1.84 24 -10 24 C-10.04125 21.64875 -10.0825 19.2975 -10.125 16.875 C-10.14320801 16.14651855 -10.16141602 15.41803711 -10.18017578 14.66748047 C-10.21611748 10.39273764 -9.82208594 6.88438257 -8 3 C-4.4375 1.6875 -4.4375 1.6875 -1 1 C-0.67 0.67 -0.34 0.34 0 0 Z M-6 4 C-6 6.64 -6 9.28 -6 12 C-6.99 11.67 -7.98 11.34 -9 11 C-9 14.96 -9 18.92 -9 23 C-8.01 23 -7.02 23 -6 23 C0.33333333 23 6.66666667 23 13 23 C13 19.37 13 15.74 13 12 C12.01 12 11.02 12 10 12 C10 9.36 10 6.72 10 4 C4.72 4 -0.56 4 -6 4 Z " fill="#402632" transform="translate(10,0)"/>
<path d="M0 0 C3.3 0 6.6 0 10 0 C9.01 1.485 9.01 1.485 8 3 C8.825 3.804375 9.65 4.60875 10.5 5.4375 C13 8 13 8 13 9 C7.72 9 2.44 9 -3 9 C0 4 0 4 2 3 C1.34 2.01 0.68 1.02 0 0 Z " fill="#CD4F7F" transform="translate(7,14)"/>
<path d="M0 0 C4.8270487 1.28721299 5.83922605 1.78563473 9 6 C4.545 8.97 4.545 8.97 0 12 C0 8.04 0 4.08 0 0 Z " fill="#F48BB9" transform="translate(1,11)"/>
<path d="M0 0 C0.33 0 0.66 0 1 0 C1.4640625 1.4540625 1.4640625 1.4540625 1.9375 2.9375 C2.69523342 5.84065792 2.69523342 5.84065792 4 7 C4.14393457 11.33530918 4.04212061 15.66157731 4 20 C-2.93 20 -9.86 20 -17 20 C-17 19.01 -17 18.02 -17 17 C-16.34 17.33 -15.68 17.66 -15 18 C-12.68851505 18.07160734 -10.3749941 18.08397827 -8.0625 18.0625 C-6.81597656 18.05347656 -5.56945312 18.04445313 -4.28515625 18.03515625 C-3.20105469 18.02355469 -2.11695313 18.01195313 -1 18 C-0.01 18 0.98 18 2 18 C2.33 14.7 2.66 11.4 3 8 C1.68 8.33 0.36 8.66 -1 9 C-0.67 6.03 -0.34 3.06 0 0 Z " fill="#573344" transform="translate(20,4)"/>
<path d="M0 0 C0 3.63 0 7.26 0 11 C-2.97 9.02 -5.94 7.04 -9 5 C-6 1 -6 1 -3.9375 0.25 C-2 0 -2 0 0 0 Z " fill="#F587B7" transform="translate(23,12)"/>
<path d="M0 0 C1.4540625 0.0309375 1.4540625 0.0309375 2.9375 0.0625 C3.625 2.375 3.625 2.375 3.9375 5.0625 C2.5 6.875 2.5 6.875 0.9375 8.0625 C-1 7.375 -1 7.375 -3.0625 6.0625 C-3.875 3.5 -3.875 3.5 -4.0625 1.0625 C-3.0625 0.0625 -3.0625 0.0625 0 0 Z " fill="#B46C8E" transform="translate(12.0625,5.9375)"/>
</svg>
